<svg id="Layer_1" data-name="Layer 1" xmlns="http://www.w3.org/2000/svg" viewBox="0 0 567.04 567.04"><defs><style>.cls-1{fill:#f2db04;}.cls-2{fill:#303031;}.cls-3{fill:#fff;}.cls-4{fill:#1d1d1b;}</style></defs><circle class="cls-1" cx="283.52" cy="283.52" r="275.29" transform="translate(-117.44 283.52) rotate(-45)"/><path class="cls-2" d="M283.52,16.46a267.06,267.06,0,0,1,188.84,455.9A267.06,267.06,0,0,1,94.68,94.68,265.32,265.32,0,0,1,283.52,16.46m0-16.46C126.94,0,0,126.94,0,283.52S126.94,567,283.52,567,567,440.1,567,283.52,440.1,0,283.52,0Z"/><path class="cls-2" d="M216.37,428.76H196.26v8.14h17.18v10.15H196.26v17.89H184.87V418.61h31.5Z"/><path class="cls-2" d="M250.46,464.94H240.05v-2.86a10.64,10.64,0,0,1-7.81,3.19,11.3,11.3,0,0,1-8.36-3.09,11.13,11.13,0,0,1-3.09-8.23,9.27,9.27,0,0,1,2.86-7q3.19-3.14,9-3.13h7.09v-.91c0-2.9-1.76-4.36-5.27-4.36a7.63,7.63,0,0,0-5.6,2.35l-6.63-6.64a15,15,0,0,1,5.46-3.68,22,22,0,0,1,7.29-1q15.42,0,15.42,12.69ZM239.79,451.8v-.91h-5.4q-3.37,0-3.38,2.79c0,2,1.17,2.93,3.51,2.93a5.94,5.94,0,0,0,4.23-1.3A4.73,4.73,0,0,0,239.79,451.8Z"/><path class="cls-2" d="M288.07,447.44a65.45,65.45,0,0,1-.32,8,10.54,10.54,0,0,1-11.45,9.89,10.94,10.94,0,0,1-8.07-3.25v2.86H257.88V418.61h10.67v13.86a10.58,10.58,0,0,1,7.81-2.93,10.53,10.53,0,0,1,11.39,9.89A65.65,65.65,0,0,1,288.07,447.44Zm-10.67,0a17.63,17.63,0,0,0-.71-6.05,4.21,4.21,0,0,0-7.42,0,25.78,25.78,0,0,0,0,12.1,4.22,4.22,0,0,0,7.42,0A17.71,17.71,0,0,0,277.4,447.44Z"/><path class="cls-2" d="M311.11,464.94h-5.66q-5.4,0-8.33-3.38a10.14,10.14,0,0,1-2.54-7v-36h10.67v35.2A1.9,1.9,0,0,0,307.4,456h3.71Z"/><path class="cls-2" d="M344.56,464.94H334.14v-2.86a10.61,10.61,0,0,1-7.8,3.19,11.31,11.31,0,0,1-8.37-3.09,11.13,11.13,0,0,1-3.09-8.23,9.28,9.28,0,0,1,2.87-7q3.18-3.14,9-3.13h7.09v-.91c0-2.9-1.75-4.36-5.27-4.36a7.6,7.6,0,0,0-5.59,2.35l-6.64-6.64a15,15,0,0,1,5.47-3.68,21.9,21.9,0,0,1,7.28-1q15.42,0,15.43,12.69ZM333.88,451.8v-.91h-5.4q-3.37,0-3.38,2.79c0,2,1.17,2.93,3.51,2.93a5.94,5.94,0,0,0,4.23-1.3C333.54,454.66,333.88,453.49,333.88,451.8Z"/><path class="cls-2" d="M382.17,447.44a64.87,64.87,0,0,1-.33,8,10.54,10.54,0,0,1-11.45,9.89,11,11,0,0,1-8.07-3.25v2.86H352V418.61h10.68v13.86a10.54,10.54,0,0,1,7.8-2.93,10.53,10.53,0,0,1,11.39,9.89A65.06,65.06,0,0,1,382.17,447.44Zm-10.68,0a17.38,17.38,0,0,0-.71-6.05,4.21,4.21,0,0,0-7.42,0,26.13,26.13,0,0,0,0,12.1,4.22,4.22,0,0,0,7.42,0A17.45,17.45,0,0,0,371.49,447.44Z"/><path class="cls-3" d="M251.09,382.15l.07-33.72,2.6-1.06a14.59,14.59,0,0,0,1.94-.95c11.47-6.7,12.3-26.68,1.86-44.54-7.83-13.4-20.44-22.4-31.38-22.4a16.23,16.23,0,0,0-8.34,2.16c-5.29,3.09-8.49,9.23-9,17.29-.58,8.67,2,18.35,7.17,27.25a56.3,56.3,0,0,0,5.65,7.95l1,1.18-.06,30.09-36.79-21.61V231.37L217.14,213l26.74,14.41-.29,2.79a14.73,14.73,0,0,0-.09,2.16C244,244.85,260.22,255,279.74,255c.71,0,1.42,0,2.14,0,20.67-.76,37.1-12.17,36.61-25.44-.46-12.54-16.72-22.73-36.24-22.73-.71,0-1.42,0-2.14,0a56.22,56.22,0,0,0-9.67,1.22l-1.51.32L246,196l37.52-22,97.79,57.42v34.92l-28.06,17.22-2.27-1.66a16.46,16.46,0,0,0-1.82-1.15,16.07,16.07,0,0,0-7.67-1.85c-11.15,0-23.7,9.5-31.23,23.64-9.72,18.26-8.1,38.2,3.62,44.44a16.17,16.17,0,0,0,7.66,1.84c11.15,0,23.7-9.5,31.23-23.64a56,56,0,0,0,3.83-9.05l.48-1.47,24.23-14.87v43L282.68,400.7Z"/><path class="cls-4" d="M283.48,178.85l93.6,55V264l-23.67,14.52a19.1,19.1,0,0,0-2.33-1.47,20.19,20.19,0,0,0-9.63-2.34c-12.34,0-26.44,9.92-34.93,25.86-10.82,20.33-8.43,42.77,5.35,50.11a20.37,20.37,0,0,0,9.64,2.33c12.33,0,26.43-9.92,34.92-25.86a60.54,60.54,0,0,0,4.11-9.72l16.54-10.15v33.13l-94.4,55.43-27.4-16.09.06-28.5a21,21,0,0,0,2.48-1.21c13.48-7.88,15-30.39,3.36-50.27-8.89-15.21-22.88-24.48-35-24.48A20.56,20.56,0,0,0,215.72,278c-13.48,7.88-15,30.39-3.36,50.28a60.8,60.8,0,0,0,6.07,8.54l-.05,21.25L190,341.4V233.77l27.27-16,22.19,12a18.11,18.11,0,0,0-.1,2.76c.55,15.08,18.44,26.76,40.42,26.76.76,0,1.53,0,2.3,0,23-.85,41.21-14.18,40.64-29.79-.56-15.08-18.44-26.76-40.43-26.76-.76,0-1.52,0-2.29,0A61.73,61.73,0,0,0,269.57,204l-15.07-8.12,29-17m0-9.71-4.24,2.49-29,17-12.83,7.54,13.1,7.06,15.07,8.12,2.71,1.46,3-.64a52.08,52.08,0,0,1,9-1.14c.66,0,1.33,0,2,0,17,0,31.68,8.56,32.06,18.69.23,6.32-4.95,11.08-8.06,13.36-6.25,4.58-15.18,7.4-24.52,7.75l-2,0c-17,0-31.68-8.56-32.05-18.69a10.7,10.7,0,0,1,.06-1.57l.59-5.59-5-2.66-22.19-12-4.15-2.23L213,210.53l-27.27,16L181.58,229V346.19l4.14,2.43,28.42,16.69,12.59,7.39,0-14.59,0-21.26v-3.07l-2-2.35a53.53,53.53,0,0,1-5.23-7.36c-9.11-15.6-9-33.37.36-38.82a12.2,12.2,0,0,1,6.23-1.59c7.91,0,19.56,6.29,27.77,20.33,9.11,15.6,8.95,33.38-.36,38.82a10.47,10.47,0,0,1-1.42.68l-5.2,2.13v5.61l-.06,28.51v4.8L251,387l27.4,16.09,4.24,2.49,4.24-2.49,94.4-55.44,4.13-2.42v-52.9l-12.75,7.83-16.54,10.15-2.63,1.61-.95,2.93a53.36,53.36,0,0,1-3.54,8.38c-6.72,12.62-18,21.42-27.53,21.42a12,12,0,0,1-5.7-1.35c-9.52-5.07-10.38-22.82-1.89-38.77,6.71-12.61,18-21.42,27.53-21.42a12,12,0,0,1,5.7,1.35,11.59,11.59,0,0,1,1.32.85L353,288.6l4.79-2.94,23.66-14.52,4-2.46V229l-4.13-2.43-93.6-55-4.24-2.49Z"/><path class="cls-2" d="M283.52,46.23,254.79,62.81V96l28.73,16.59L312.24,96V62.81Zm6,12.2-6,10.47-6-10.47Zm11.69,33-17.73,10.24L265.79,91.43V71l9.18-5.3,2.87,5-6.32,3.65V88.12l12,6.92,12-6.92V74.27l-6.31-3.65,2.87-5,9.18,5.3Z"/><path class="cls-2" d="M315.53,101.59l-28.72,16.58v33.17l28.72,16.59,28.73-16.59V118.17Zm0,10.26a5.23,5.23,0,1,1-5.23,5.23A5.23,5.23,0,0,1,315.53,111.85Zm17.74,35.29-17.74,10.24L297.8,147.14V126.66l9.18-5.3,2.87,5L303.54,130v13.85l12,6.92,12-6.92V130l-6.32-3.65,2.87-5,9.19,5.3Z"/><path class="cls-2" d="M251.51,101.59l-28.73,16.58v33.17l28.73,16.59,28.72-16.59V118.17Zm-1.7,12.88,1.7-3.44,1.7,3.44,3.8.55-2.75,2.69.65,3.78-3.4-1.79-3.4,1.79.65-3.78L246,115Zm19.43,32.82-17.73,10.24-17.74-10.24V126.81l9.18-5.3,2.87,5-6.31,3.65V144l12,6.92,12-6.92V130.13l-6.31-3.65,2.87-5,9.18,5.3Z"/></svg>