<?xml version="1.0" standalone="no"?>
<!DOCTYPE svg PUBLIC "-//W3C//DTD SVG 20010904//EN"
 "http://www.w3.org/TR/2001/REC-SVG-20010904/DTD/svg10.dtd">
<svg version="1.0" xmlns="http://www.w3.org/2000/svg"
 width="700.000000pt" height="700.000000pt" viewBox="0 0 700.000000 700.000000"
 preserveAspectRatio="xMidYMid meet">
<metadata>
Created by potrace 1.14, written by Peter Selinger 2001-2017
</metadata>
<g transform="translate(0.000000,700.000000) scale(0.100000,-0.100000)"
fill="#000000" stroke="none">
<path d="M3278 6995 c-2 -1 -41 -6 -88 -9 -47 -4 -94 -9 -105 -11 -11 -2 -42
-7 -70 -10 -27 -3 -72 -10 -100 -15 -27 -5 -63 -12 -80 -15 -16 -3 -43 -8 -60
-11 -125 -21 -489 -134 -612 -190 -28 -13 -54 -24 -57 -24 -14 0 -258 -124
-361 -183 -103 -60 -265 -165 -315 -204 -8 -6 -51 -40 -95 -74 -91 -71 -207
-174 -310 -276 -485 -481 -837 -1142 -960 -1808 -10 -49 -18 -97 -20 -105 -2
-9 -6 -43 -10 -75 -4 -33 -9 -69 -11 -80 -25 -135 -25 -678 0 -812 2 -10 7
-43 10 -74 4 -31 9 -67 11 -80 3 -13 7 -37 9 -54 20 -145 116 -479 193 -673
45 -116 140 -317 192 -407 15 -27 38 -68 51 -90 34 -61 162 -252 214 -320 107
-141 147 -187 282 -326 126 -130 207 -204 357 -325 50 -40 172 -127 247 -176
486 -316 1050 -509 1620 -555 184 -15 579 -8 720 13 186 28 308 51 437 85 157
40 380 114 470 155 28 13 54 24 57 24 12 0 277 133 338 170 37 22 70 40 73 40
3 0 11 5 18 10 7 6 64 44 127 86 189 126 314 227 480 388 96 94 142 143 239
250 119 134 322 435 425 631 143 272 275 639 332 919 20 99 46 274 57 381 14
129 15 570 3 665 -3 25 -11 81 -16 125 -6 44 -12 89 -14 100 -2 11 -11 61 -21
110 -144 770 -567 1492 -1180 2012 -313 266 -757 516 -1130 637 -144 46 -181
58 -195 61 -8 2 -42 10 -75 19 -71 18 -196 45 -245 52 -19 3 -60 9 -91 15 -31
5 -81 12 -110 15 -30 3 -67 8 -84 10 -34 6 -542 14 -547 9z"/>
</g>
</svg>
